<svg xmlns="http://www.w3.org/2000/svg" width="35" height="34" viewBox="0 0 35 34">
    <path fill="#F5A623" fill-rule="nonzero" stroke="#F5A623" stroke-width="2" d="M33.296 15.825a2.312 2.312 0 0 0 .589-2.385 2.312 2.312 0 0 0-1.88-1.583l-7.854-1.142a1.026 1.026 0 0 1-.773-.561l-3.511-7.117A2.312 2.312 0 0 0 17.78 1.74c-.89 0-1.691.497-2.085 1.297l-3.513 7.117c-.15.304-.439.513-.773.562l-7.855 1.141a2.312 2.312 0 0 0-1.879 1.584 2.312 2.312 0 0 0 .589 2.385l5.683 5.54c.242.236.353.576.296.909l-1.34 7.822a2.278 2.278 0 0 0 .507 1.886 2.35 2.35 0 0 0 2.868.566l7.024-3.694c.294-.154.663-.152.956 0l7.026 3.694c.341.18.706.27 1.082.27.686 0 1.337-.305 1.785-.836.446-.528.626-1.199.507-1.886l-1.341-7.822a1.028 1.028 0 0 1 .296-.91l5.683-5.54z"/>
</svg>
